<svg xmlns="http://www.w3.org/2000/svg" width="600" height="420" viewBox="0 0 600 420">
  <defs>
    <linearGradient id="g" x1="0" y1="0" x2="1" y2="1">
      <stop offset="0" stop-color="#f3efe6"/>
      <stop offset="1" stop-color="#efe2c9"/>
    </linearGradient>
  </defs>
  <rect width="600" height="420" rx="28" fill="url(#g)"/>
  <circle cx="190" cy="160" r="120" fill="#c6a15b" opacity="0.18"/>
  <path d="M300 110c68 0 120 56 120 128 0 96-66 138-120 138s-120-42-120-138c0-72 52-128 120-128z" fill="#ffffff" opacity="0.55"/>
  <path d="M252 232c8 10 22 16 48 16s40-6 48-16" fill="none" stroke="#13251f" stroke-opacity="0.35" stroke-width="10" stroke-linecap="round"/>
  <circle cx="262" cy="196" r="10" fill="#13251f" opacity="0.28"/>
  <circle cx="338" cy="196" r="10" fill="#13251f" opacity="0.28"/>
  <path d="M408 120c32 16 50 42 50 76" fill="none" stroke="#2f6b57" stroke-opacity="0.35" stroke-width="12" stroke-linecap="round"/>
</svg>

