<svg xmlns="http://www.w3.org/2000/svg" width="600" height="420" viewBox="0 0 600 420">
  <defs>
    <linearGradient id="g" x1="0" y1="0" x2="1" y2="1">
      <stop offset="0" stop-color="#e9efe9"/>
      <stop offset="1" stop-color="#cfe0d8"/>
    </linearGradient>
  </defs>
  <rect width="600" height="420" rx="28" fill="url(#g)"/>
  <circle cx="440" cy="150" r="110" fill="#2f6b57" opacity="0.18"/>
  <path d="M170 270c22-86 90-140 162-140 54 0 98 23 126 62-46 10-76 34-90 72-14 38-46 66-104 66-46 0-78-20-94-60z" fill="#2f6b57" opacity="0.38"/>
  <path d="M200 282c12-56 60-108 122-108 54 0 92 26 112 70-34 8-56 24-66 48-12 28-34 44-74 44-44 0-74-16-94-54z" fill="#13251f" opacity="0.25"/>
  <path d="M140 328h320" stroke="#13251f" stroke-opacity="0.18" stroke-width="12" stroke-linecap="round"/>
</svg>

